<?xml version="1.0" encoding="UTF-8"?>
<svg width="357px" height="105px" viewBox="0 0 357 105" version="1.1" xmlns="http://www.w3.org/2000/svg" xmlns:xlink="http://www.w3.org/1999/xlink">
    <!-- Generator: Sketch 61 (89581) - https://sketch.com -->
    <title>Group 10</title>
    <desc>Created with Sketch.</desc>
    <g id="Page-1" stroke="none" stroke-width="1" fill="none" fill-rule="evenodd">
        <g id="Artboard-5" transform="translate(-163.000000, -496.000000)" fill="#FE933C">
            <g id="Group-10" transform="translate(163.134200, 496.439900)">
                <path d="M45.273,-2.84217094e-14 L1.42108547e-14,26.139 L1.42108547e-14,78.416 L45.273,104.555 L90.547,78.416 L90.547,26.139 L45.273,-2.84217094e-14 Z M45.273,4.259 L86.859,28.268 L86.859,76.287 L45.273,100.296 L3.688,76.287 L3.688,28.268 L45.273,4.259 Z" id="Fill-267"></path>
                <polygon id="Fill-269" points="81.5972 38.8829 81.5972 31.2999 75.0302 27.5079 45.2732 44.6879 15.5172 27.5079 8.9502 31.2999 8.9502 38.8829 38.7052 56.0629 38.7052 90.4289 45.2732 94.2209 51.8412 90.4289 51.8412 56.0629"></polygon>
                <polygon id="Fill-271" points="45.273 42.5581 51.843 38.7651 51.843 14.1251 45.276 10.3341 38.709 14.1251 38.709 38.7681"></polygon>
                <polygon id="Fill-273" points="53.6851 57.128 53.6851 64.716 75.0331 77.041 81.6001 73.249 81.6001 65.666 60.2481 53.338"></polygon>
                <polygon id="Fill-275" points="36.8619 57.128 30.2999 53.34 8.9469 65.669 8.9469 73.252 15.5139 77.044 36.8619 64.719"></polygon>
                <path d="M192.858,33.7217 L192.858,52.3137 L186.659,46.7327 L186.659,33.7217 L192.858,33.7217 Z M161.971,33.7217 L192.858,61.5347 L192.858,70.8617 L168.116,48.6307 L168.116,70.8087 L161.971,70.8087 L161.971,33.7217 Z" id="Fill-277"></path>
                <path d="M236.5748,51.6866 L242.7748,51.6866 L242.7748,65.5216 C241.0648,67.2326 239.0958,68.5676 236.8698,69.5306 C234.6418,70.4926 232.2478,70.9736 229.6818,70.9736 C227.1188,70.9736 224.7128,70.4836 222.4688,69.5026 C220.2238,68.5246 218.2558,67.1976 216.5618,65.5216 C214.8708,63.8486 213.5348,61.8886 212.5548,59.6446 C211.5748,57.4006 211.0848,54.9966 211.0848,52.4306 C211.0848,49.9366 211.5748,47.5596 212.5548,45.2966 C213.5348,43.0336 214.8708,41.0576 216.5618,39.3646 C218.2558,37.6736 220.2248,36.3376 222.4688,35.3566 C224.7128,34.3766 227.1168,33.8866 229.6818,33.8866 L242.7748,33.8866 L236.5758,40.0856 L229.6828,40.0856 C227.9738,40.0856 226.3708,40.4056 224.8748,41.0476 C223.3778,41.6886 222.0678,42.5696 220.9458,43.6916 C219.8228,44.8136 218.9308,46.1236 218.2728,47.6206 C217.6138,49.1166 217.2848,50.7186 217.2848,52.4286 C217.2848,54.1396 217.6138,55.7416 218.2728,57.2386 C218.9308,58.7346 219.8138,60.0446 220.9178,61.1666 C222.0238,62.2896 223.3308,63.1696 224.8468,63.8116 C226.3618,64.4526 227.9718,64.7736 229.6828,64.7736 C232.2398,64.7736 234.5368,64.0726 236.5748,62.6796 L236.5748,51.6866 Z" id="Fill-279"></path>
                <polygon id="Fill-281" points="267.19 70.6104 261.045 64.5184 261.045 33.6814 267.19 33.6814"></polygon>
                <path d="M316.3043,33.7217 L316.3043,52.3137 L310.1053,46.7327 L310.1053,33.7217 L316.3043,33.7217 Z M285.4163,33.7217 L316.3043,61.5347 L316.3043,70.8617 L291.5623,48.6307 L291.5623,70.8087 L285.4163,70.8087 L285.4163,33.7217 Z" id="Fill-283"></path>
                <polygon id="Fill-285" points="117.8844 33.5816 117.9504 33.6486 117.8184 33.6486 117.8184 39.7876 124.0364 39.7876 124.0374 39.7876 142.6014 39.7876 142.6014 33.5816"></polygon>
                <polygon id="Fill-287" points="124.1705 46.1402 117.8175 46.1402 117.8175 70.7092 117.8845 70.7092 117.8845 70.7102 142.6015 70.7102 142.6015 64.5042 124.1705 64.5042 124.1705 55.2482 142.6015 55.2482 142.6015 49.0962 124.1705 49.0962"></polygon>
                <polygon id="Fill-289" points="331.8414 33.5816 331.9074 33.6486 331.7754 33.6486 331.7754 39.7876 337.9934 39.7876 337.9934 39.7876 356.5584 39.7876 356.5584 33.5816"></polygon>
                <polygon id="Fill-291" points="338.1275 46.1402 331.7745 46.1402 331.7745 70.7092 331.8415 70.7092 331.8415 70.7102 356.5585 70.7102 356.5585 64.5042 338.1275 64.5042 338.1275 55.2482 356.5585 55.2482 356.5585 49.0962 338.1275 49.0962"></polygon>
            </g>
        </g>
    </g>
</svg>