<?xml version="1.0" encoding="UTF-8"?>
<svg width="416px" height="106px" viewBox="0 0 416 106" version="1.1" xmlns="http://www.w3.org/2000/svg" xmlns:xlink="http://www.w3.org/1999/xlink">
    <!-- Generator: Sketch 61 (89581) - https://sketch.com -->
    <title>Group 9</title>
    <desc>Created with Sketch.</desc>
    <g id="Page-1" stroke="none" stroke-width="1" fill="none" fill-rule="evenodd">
        <g id="Artboard-5" transform="translate(-163.000000, -861.000000)" fill="#BF56FF">
            <g id="Group-9" transform="translate(163.134200, 861.570300)">
                <path d="M45.273,2.84217094e-14 L1.42108547e-14,26.139 L1.42108547e-14,78.416 L45.273,104.555 L90.547,78.416 L90.547,26.139 L45.273,2.84217094e-14 Z M45.273,4.26 L86.859,28.269 L86.859,76.287 L45.273,100.296 L3.688,76.287 L3.688,28.269 L45.273,4.26 Z" id="Fill-309"></path>
                <polygon id="Fill-310" points="55.2037 46.544 45.2727 40.812 35.3437 46.544 35.3437 58.011 45.2727 63.744 55.2037 58.011"></polygon>
                <polygon id="Fill-311" points="34.4215 59.6084 33.4985 59.0754 33.4985 58.0104 33.4985 54.8164 25.2095 59.6024 18.9315 55.9774 8.9645 61.7324 8.9645 73.2414 18.9315 78.9954 28.8985 73.2414 28.8985 65.9914 37.1875 61.2054"></polygon>
                <polygon id="Fill-312" points="41.5855 40.8115 44.3515 39.2135 45.2735 38.6815 46.1955 39.2135 48.9615 40.8115 48.9615 31.2395 55.2395 27.6145 55.2395 16.1055 45.2735 10.3515 35.3065 16.1055 35.3065 27.6145 41.5855 31.2395"></polygon>
                <polygon id="Fill-313" points="25.2095 44.9522 33.4985 49.7382 33.4985 46.5442 33.4985 45.4792 34.4215 44.9472 37.1875 43.3492 28.8975 38.5632 28.8975 31.3142 18.9315 25.5592 8.9645 31.3142 8.9645 42.8232 18.9315 48.5772"></polygon>
                <polygon id="Fill-314" points="71.6158 25.5596 61.6488 31.3146 61.6488 38.5636 53.3598 43.3496 56.1258 44.9476 57.0488 45.4796 57.0488 46.5436 57.0488 49.7386 65.3378 44.9526 71.6158 48.5776 81.5828 42.8236 81.5828 31.3146"></polygon>
                <polygon id="Fill-315" points="48.9615 63.7442 46.1955 65.3422 45.2735 65.8742 44.3515 65.3422 41.5855 63.7442 41.5855 73.3162 35.3065 76.9412 35.3065 88.4502 45.2735 94.2042 55.2395 88.4502 55.2395 76.9412 48.9615 73.3162"></polygon>
                <polygon id="Fill-316" points="65.3375 59.6026 57.0485 54.8166 57.0485 58.0106 57.0485 59.0756 56.1255 59.6086 53.3595 61.2056 61.6495 65.9916 61.6495 73.2416 71.6155 78.9956 81.5825 73.2416 81.5825 61.7326 71.6155 55.9776"></polygon>
                <path d="M117.8179,52.1504 L142.5069,52.1504 L142.5069,58.4024 L123.9639,58.4024 L123.9639,70.7464 L117.8179,70.7464 L117.8179,52.1504 Z M142.5069,33.6594 L142.5069,39.8604 L123.9639,39.8604 L117.8179,33.6594 L142.5069,33.6594 Z" id="Fill-317"></path>
                <path d="M192.5738,70.7481 L185.6798,70.7481 L182.6088,64.6021 L189.5018,64.6021 L192.5738,70.7481 Z M186.4028,58.4041 L179.4808,58.4021 L174.0308,47.5001 L168.5978,58.4021 L162.3808,70.7481 L155.4868,70.7481 L174.0308,33.6591 L186.4028,58.4041 Z" id="Fill-318"></path>
                <path d="M212.689,47.3945 C212.03,48.8915 211.701,50.4925 211.701,52.2045 C211.701,53.9125 212.03,55.5165 212.689,57.0115 C213.348,58.5095 214.239,59.8195 215.362,60.9405 C216.484,62.0645 217.793,62.9435 219.291,63.5855 C220.787,64.2285 222.389,64.5475 224.099,64.5475 L231.287,69.3025 C229.059,70.2645 226.665,70.7465 224.099,70.7465 C221.536,70.7465 219.129,70.2555 216.886,69.2765 C214.64,68.2955 212.672,66.9585 210.98,65.2675 C209.288,63.5745 207.952,61.5985 206.972,59.3355 C205.992,57.0745 205.502,54.6955 205.502,52.2035 C205.502,49.6385 205.992,47.2325 206.972,44.9885 C207.952,42.7455 209.288,40.7845 210.98,39.1105 C212.672,37.4355 214.642,36.1095 216.886,35.1295 C219.129,34.1495 221.535,33.6595 224.099,33.6595 C226.665,33.6595 229.059,34.1405 231.287,35.1035 C233.513,36.0665 235.482,37.4015 237.192,39.1125 L232.81,43.4405 C230.352,41.0525 227.449,39.8595 224.1,39.8595 C222.39,39.8595 220.778,40.1795 219.263,40.8215 C217.749,41.4625 216.44,42.3435 215.335,43.4645 C214.23,44.5875 213.348,45.8985 212.689,47.3945" id="Fill-319"></path>
                <polygon id="Fill-320" points="274.0064 33.6592 274.0064 39.8602 261.6614 39.8602 261.6614 70.7462 255.4634 70.7462 255.4634 33.6592"></polygon>
                <path d="M317.8219,52.2041 C317.8219,48.8201 316.6099,45.9181 314.1879,43.4951 C311.7659,41.0711 308.8629,39.8601 305.4779,39.8601 C302.0929,39.8601 299.1729,41.0711 296.7149,43.4951 C294.3269,45.9171 293.1329,48.8191 293.1329,52.2041 C293.1329,55.5881 294.3269,58.5101 296.7149,60.9681 C299.1729,63.3541 302.0929,64.5491 305.4779,64.5491 C308.8609,64.5491 311.7649,63.3541 314.1879,60.9681 C316.6099,58.5101 317.8219,55.5891 317.8219,52.2041 M324.0749,52.2041 C324.0749,57.3701 322.2399,61.7351 318.5709,65.2971 C314.9709,68.9311 310.6089,70.7481 305.4779,70.7481 C300.3469,70.7481 295.9819,68.9301 292.3849,65.2971 C288.7509,61.6981 286.9329,57.3341 286.9329,52.2041 C286.9329,47.1081 288.7509,42.7451 292.3849,39.1101 C295.9479,35.4761 300.3109,33.6591 305.4779,33.6591 C310.6069,33.6591 314.9709,35.4771 318.5689,39.1101 C322.2389,42.7451 324.0739,47.1101 324.0749,52.2041" id="Fill-321"></path>
                <path d="M358.0357,57.4404 L365.6777,70.7464 L358.5697,70.7464 L347.7997,52.1794 L353.3327,52.2044 C355.0067,52.2044 356.4497,51.5984 357.6617,50.3874 C358.8717,49.1754 359.4777,47.7154 359.4777,46.0044 C359.4777,44.3314 358.8737,42.8864 357.6617,41.6754 C356.4497,40.4634 355.0067,39.8594 353.3327,39.8594 L340.6517,39.8594 L337.0567,33.6594 L353.3317,33.6594 C356.7167,33.6594 359.6187,34.8724 362.0407,37.2944 C364.4647,39.7164 365.6757,42.6204 365.6757,46.0044 C365.6757,48.5694 364.9437,50.9034 363.4847,53.0044 C362.0597,55.0724 360.2427,56.5504 358.0357,57.4404" id="Fill-322"></path>
                <path d="M393.9978,70.8957 L400.1968,70.8957 L400.1968,64.6967 L393.9978,64.6967 L393.9978,70.8957 Z M397.1148,57.3737 L378.6448,33.8087 L386.5538,33.8087 L397.0818,47.3297 L407.6618,33.8087 L415.5188,33.8087 L397.1148,57.3737 Z" id="Fill-323"></path>
            </g>
        </g>
    </g>
</svg>