<?xml version="1.0" encoding="UTF-8"?>
<svg width="279px" height="106px" viewBox="0 0 279 106" version="1.1" xmlns="http://www.w3.org/2000/svg" xmlns:xlink="http://www.w3.org/1999/xlink">
    <!-- Generator: Sketch 61 (89581) - https://sketch.com -->
    <title>Group 7</title>
    <desc>Created with Sketch.</desc>
    <g id="Page-1" stroke="none" stroke-width="1" fill="none" fill-rule="evenodd">
        <g id="Artboard-5" transform="translate(-1045.000000, -496.000000)" fill="#4AC559">
            <g id="Group-7" transform="translate(1045.054100, 496.537100)">
                <path d="M117.734,52.127 L142.423,52.127 L142.423,58.379 L123.88,58.379 L123.88,70.723 L117.734,70.723 L117.734,52.127 Z M142.423,33.636 L142.423,39.836 L123.88,39.836 L117.734,33.636 L142.423,33.636 Z" id="Fill-209"></path>
                <path d="M192.4898,70.7241 L185.5948,70.7241 L182.5248,64.5791 L189.4178,64.5791 L192.4898,70.7241 Z M186.3188,58.3811 L179.3958,58.3791 L173.9468,47.4771 L168.5128,58.3791 L162.2968,70.7241 L155.4028,70.7241 L173.9468,33.6361 L186.3188,58.3811 Z" id="Fill-211"></path>
                <path d="M215.8023,57.417 L223.4453,70.723 L216.3363,70.723 L205.5663,52.156 L211.1003,52.181 C212.7743,52.181 214.2163,51.575 215.4293,50.364 C216.6383,49.153 217.2453,47.691 217.2453,45.981 C217.2453,44.307 216.6403,42.863 215.4293,41.652 C214.2163,40.441 212.7743,39.835 211.1003,39.835 L198.4183,39.835 L194.8233,33.636 L211.0983,33.636 C214.4833,33.636 217.3853,34.849 219.8083,37.271 C222.2313,39.694 223.4423,42.597 223.4423,45.981 C223.4423,48.546 222.7113,50.88 221.2513,52.981 C219.8263,55.048 218.0093,56.527 215.8023,57.417" id="Fill-213"></path>
                <polygon id="Fill-215" points="278.8492 33.6362 278.8492 70.7232 272.7042 70.7232 272.7042 48.5462 260.3072 60.9442 241.7092 42.2652 241.7092 33.6362 260.3072 52.1802"></polygon>
                <path d="M45.273,-2.13162821e-14 L0,26.139 L0,78.416 L45.273,104.555 L90.546,78.416 L90.546,26.139 L45.273,-2.13162821e-14 Z M45.273,4.259 L86.858,28.268 L86.858,76.287 L45.273,100.296 L3.688,76.287 L3.688,28.268 L45.273,4.259 Z" id="Fill-217"></path>
                <polygon id="Fill-219" points="64.5123 60.4229 48.5153 69.6589 45.2453 71.5469 41.9763 69.6589 25.9793 60.4229 22.7093 62.3109 22.7093 66.0859 41.9763 77.2099 41.9763 99.0239 45.2453 100.9119 48.5153 99.0239 48.5153 77.2099 67.7823 66.0859 67.7823 62.3109"></polygon>
                <polygon id="Fill-221" points="45.2457 66.0391 48.5157 64.1511 65.6977 54.2311 65.6977 50.4561 62.4287 48.5681 48.5157 56.6011 45.2457 58.4881 41.9757 56.6011 28.0637 48.5681 24.7947 50.4561 24.7947 54.2311 41.9757 64.1511"></polygon>
                <polygon id="Fill-223" points="45.2457 52.939 48.5157 51.051 63.5887 42.349 63.5887 38.574 60.3187 36.686 48.5157 43.501 45.2457 45.388 41.9757 43.501 30.1727 36.686 26.9027 38.574 26.9027 42.349 41.9757 51.051"></polygon>
                <polygon id="Fill-225" points="45.2457 39.9302 48.5157 38.0422 61.5317 30.5272 61.5317 26.7522 58.2627 24.8652 48.5157 30.4922 48.5157 16.2262 45.2457 14.3392 41.9757 16.2262 41.9757 30.4922 32.2287 24.8652 28.9597 26.7522 28.9597 30.5272 41.9757 38.0422"></polygon>
            </g>
        </g>
    </g>
</svg>