<?xml version="1.0" encoding="UTF-8"?>
<svg width="269px" height="106px" viewBox="0 0 269 106" version="1.1" xmlns="http://www.w3.org/2000/svg" xmlns:xlink="http://www.w3.org/1999/xlink">
    <!-- Generator: Sketch 61 (89581) - https://sketch.com -->
    <title>Group 8</title>
    <desc>Created with Sketch.</desc>
    <g id="Page-1" stroke="none" stroke-width="1" fill="none" fill-rule="evenodd">
        <g id="Artboard-5" transform="translate(-1044.000000, -313.000000)" fill="#E75757">
            <g id="Group-8" transform="translate(1044.970100, 313.874100)">
                <path d="M143.3072,51.664 L149.5082,51.664 L149.5082,65.499 C147.7982,67.211 145.8292,68.545 143.6032,69.508 C141.3742,70.47 138.9812,70.951 136.4152,70.951 C133.8522,70.951 131.4462,70.461 129.2022,69.48 C126.9562,68.502 124.9892,67.175 123.2952,65.499 C121.6042,63.826 120.2682,61.866 119.2882,59.622 C118.3072,57.378 117.8182,54.974 117.8182,52.408 C117.8182,49.915 118.3072,47.537 119.2882,45.274 C120.2682,43.012 121.6042,41.036 123.2952,39.342 C124.9892,37.651 126.9572,36.315 129.2022,35.334 C131.4462,34.354 133.8502,33.864 136.4152,33.864 L149.5082,33.864 L143.3092,40.062 L136.4152,40.062 C134.7072,40.062 133.1042,40.382 131.6072,41.025 C130.1112,41.666 128.8012,42.546 127.6792,43.669 C126.5562,44.791 125.6642,46.101 125.0062,47.598 C124.3472,49.094 124.0182,50.696 124.0182,52.407 C124.0182,54.117 124.3472,55.719 125.0062,57.216 C125.6642,58.712 126.5462,60.021 127.6512,61.144 C128.7572,62.267 130.0642,63.147 131.5792,63.789 C133.0942,64.431 134.7052,64.751 136.4152,64.751 C138.9732,64.751 141.2702,64.05 143.3072,62.657 L143.3072,51.664 Z" id="Fill-199"></path>
                <path d="M186.11,57.5331 L193.752,70.8391 L186.644,70.8391 L175.874,52.2721 L181.408,52.2961 C183.081,52.2961 184.524,51.6911 185.737,50.4791 C186.946,49.2681 187.552,47.8071 187.552,46.0971 C187.552,44.4231 186.948,42.9791 185.737,41.7681 C184.524,40.5561 183.081,39.9511 181.408,39.9511 L168.726,39.9511 L165.131,33.7521 L181.406,33.7521 C184.791,33.7521 187.693,34.9641 190.116,37.3871 C192.539,39.8101 193.75,42.7131 193.75,46.0971 C193.75,48.6611 193.019,50.9961 191.559,53.0971 C190.134,55.1641 188.317,56.6431 186.11,57.5331" id="Fill-201"></path>
                <polygon id="Fill-203" points="218.1627 70.5878 212.0177 64.4958 212.0177 33.6588 218.1627 33.6588"></polygon>
                <path d="M267.276014,52.1479 C267.276014,54.6789 266.787,57.0649 265.807,59.3099 C264.828,61.5539 263.5,63.5239 261.827,65.2159 C260.15,66.9089 258.183,68.2429 255.921,69.2229 C253.658,70.2039 251.262,70.6929 248.734,70.6929 L236.388,70.6929 L236.388,55.2499 L242.589,55.2499 L242.589,64.4929 L248.735,64.4929 C250.444,64.4929 252.047,64.1719 253.543,63.5309 C255.04,62.8899 256.349,61.9999 257.472,60.8589 C258.594,59.7189 259.474,58.4009 260.117,56.9049 C260.757,55.4079 261.079,53.8239 261.079,52.1479 C261.079,50.4759 260.757,48.8889 260.117,47.3929 C259.474,45.8969 258.584,44.5789 257.444,43.4389 C256.303,42.2979 254.986,41.4079 253.49,40.7669 C251.994,40.1249 250.408,39.8049 248.735,39.8049 L242.536,39.8049 L236.39,33.6059 L248.735,33.6059 C251.263,33.6059 253.652,34.0959 255.896,35.0759 C258.141,36.0569 260.109,37.3929 261.8,39.0849 C263.493,40.7769 264.829,42.7459 265.809,44.9889 C266.789,47.2329 267.279,49.6209 267.276014,52.1479" id="Fill-205"></path>
                <path d="M86.858,76.287 L45.273,100.296 L3.688,76.287 L3.688,28.269 L41.585,6.389 L41.585,25.094 L19.887,37.621 L19.887,66.935 L45.273,81.592 L70.66,66.935 L70.66,37.621 L48.962,25.094 L48.962,6.389 L86.858,28.269 L86.858,76.287 Z M45.273,48.199 L48.962,46.069 L48.962,45.951 L48.962,33.612 L63.283,41.88 L63.283,62.676 L45.273,73.074 L27.263,62.676 L27.263,41.88 L41.585,33.612 L41.585,41.81 L41.585,45.951 L41.585,46.069 L45.273,48.199 Z M45.273,-2.13162821e-14 L1.13686838e-13,26.139 L1.13686838e-13,78.416 L45.273,104.555 L90.546,78.416 L90.546,26.139 L45.273,-2.13162821e-14 Z" id="Fill-207"></path>
            </g>
        </g>
    </g>
</svg>