<?xml version="1.0" encoding="UTF-8"?>
<svg width="269px" height="105px" viewBox="0 0 269 105" version="1.1" xmlns="http://www.w3.org/2000/svg" xmlns:xlink="http://www.w3.org/1999/xlink">
    <!-- Generator: Sketch 61 (89581) - https://sketch.com -->
    <title>Group 6</title>
    <desc>Created with Sketch.</desc>
    <g id="Page-1" stroke="none" stroke-width="1" fill="none" fill-rule="evenodd">
        <g id="Artboard-5" transform="translate(-163.000000, -679.000000)" fill="#FFC35E">
            <g id="Group-6" transform="translate(163.134200, 679.004900)">
                <polygon id="Fill-227" points="38.4381 59.8398 38.4381 67.7328 45.2731 71.6788 52.1091 67.7328 52.1091 59.8398 45.2731 55.8938"></polygon>
                <polygon id="Fill-229" points="38.4381 82.3652 38.4381 90.2582 45.2731 94.2042 52.1091 90.2582 52.1091 82.3652 45.2731 78.4192"></polygon>
                <polygon id="Fill-231" points="38.4381 36.7373 38.4381 44.6303 45.2731 48.5763 52.1091 44.6303 52.1091 36.7373 45.2731 32.7913"></polygon>
                <polygon id="Fill-233" points="38.4381 14.2978 38.4381 22.1908 45.2731 26.1368 52.1091 22.1908 52.1091 14.2978 45.2731 10.3518"></polygon>
                <polygon id="Fill-235" points="17.6461 48.0478 17.6461 55.9408 24.4811 59.8868 31.3171 55.9408 31.3171 48.0478 24.4811 44.1018"></polygon>
                <polygon id="Fill-237" points="17.6461 70.5732 17.6461 78.4662 24.4811 82.4122 31.3171 78.4662 31.3171 70.5732 24.4811 66.6272"></polygon>
                <polygon id="Fill-239" points="17.6461 24.9453 17.6461 32.8383 24.4811 36.7843 31.3171 32.8383 31.3171 24.9453 24.4811 20.9993"></polygon>
                <polygon id="Fill-241" points="72.901 55.9404 72.901 48.0474 66.066 44.1014 59.23 48.0474 59.23 55.9404 66.066 59.8864"></polygon>
                <polygon id="Fill-243" points="72.901 78.4658 72.901 70.5728 66.066 66.6268 59.23 70.5728 59.23 78.4658 66.066 82.4118"></polygon>
                <polygon id="Fill-245" points="72.901 32.8379 72.901 24.9449 66.066 20.9989 59.23 24.9449 59.23 32.8379 66.066 36.7839"></polygon>
                <polygon id="Fill-247" points="10.524 67.7324 10.524 59.8394 3.689 55.8934 3.688 55.8934 3.688 71.6784 3.689 71.6784"></polygon>
                <polygon id="Fill-249" points="10.524 44.6299 10.524 36.7369 3.689 32.7909 3.688 32.7909 3.688 48.5759 3.689 48.5759"></polygon>
                <polygon id="Fill-251" points="80.023 59.8398 80.023 67.7328 86.858 71.6788 86.859 71.6788 86.859 55.8938 86.858 55.8938"></polygon>
                <polygon id="Fill-253" points="80.023 36.7373 80.023 44.6303 86.858 48.5763 86.859 48.5763 86.859 32.7913 86.858 32.7913"></polygon>
                <path d="M86.859,32.791 L86.859,48.576 L86.859,55.894 L86.859,71.679 L86.859,76.287 L45.273,100.296 L3.688,76.287 L3.688,71.679 L3.688,55.894 L3.688,48.576 L3.688,32.791 L3.688,28.269 L45.273,4.26 L86.859,28.269 L86.859,32.791 Z M45.273,2.84217094e-14 L1.42108547e-14,26.139 L1.42108547e-14,34.921 L1.42108547e-14,46.446 L1.42108547e-14,58.023 L1.42108547e-14,69.55 L1.42108547e-14,78.416 L45.273,104.555 L90.547,78.416 L90.547,69.55 L90.547,58.023 L90.547,46.447 L90.547,34.921 L90.547,26.139 L45.273,2.84217094e-14 Z" id="Fill-255"></path>
                <polygon id="Fill-257" points="148.7056 33.792 148.7056 70.879 142.5076 70.879 142.5076 55.437 123.9636 55.437 123.9636 70.879 117.8176 70.879 117.8176 55.437 123.9636 49.237 142.5076 49.237 142.5076 33.792"></polygon>
                <polygon id="Fill-259" points="173.0758 70.6279 166.9298 64.5359 166.9298 33.6989 173.0758 33.6989"></polygon>
                <path d="M228.3892,33.8691 L216.7922,57.0611 L213.3312,50.1411 L221.4942,33.8691 L228.3892,33.8691 Z M209.8452,57.1141 L198.1962,33.8691 L201.3212,40.0131 L204.3952,46.2141 L209.8452,57.1141 Z M213.3092,64.0271 L209.8462,70.9561 L191.3022,33.8691 L198.1962,33.8691 L213.3092,64.0271 Z" id="Fill-261"></path>
                <polygon id="Fill-263" points="243.9263 33.5996 243.9923 33.6656 243.8603 33.6656 243.8603 39.8046 250.0783 39.8046 250.0783 39.8056 268.6433 39.8056 268.6433 33.5996"></polygon>
                <polygon id="Fill-265" points="250.2125 46.1582 243.8595 46.1582 243.8595 70.7262 243.9265 70.7262 243.9265 70.7272 268.6435 70.7272 268.6435 64.5212 250.2125 64.5212 250.2125 55.2662 268.6435 55.2662 268.6435 49.1142 250.2125 49.1142"></polygon>
            </g>
        </g>
    </g>
</svg>