<?xml version="1.0" encoding="UTF-8"?>
<svg width="251px" height="106px" viewBox="0 0 251 106" version="1.1" xmlns="http://www.w3.org/2000/svg" xmlns:xlink="http://www.w3.org/1999/xlink">
    <!-- Generator: Sketch 61 (89581) - https://sketch.com -->
    <title>Group 5</title>
    <desc>Created with Sketch.</desc>
    <g id="Page-1" stroke="none" stroke-width="1" fill="none" fill-rule="evenodd">
        <g id="Artboard-5" transform="translate(-163.000000, -313.000000)" fill="#22C9E8">
            <g id="Group-5" transform="translate(163.134200, 313.874100)">
                <path d="M86.859,76.287 L45.273,100.296 L3.688,76.287 L3.688,28.269 L45.273,4.26 L86.859,28.269 L86.859,76.287 Z M45.273,-2.13162821e-14 L1.42108547e-14,26.139 L1.42108547e-14,78.416 L45.273,104.555 L90.547,78.416 L90.547,26.139 L45.273,-2.13162821e-14 Z" id="Fill-293"></path>
                <path d="M63.5728,62.8432 L45.2728,73.4082 L26.9738,62.8432 L26.9738,41.7132 L45.2728,31.1482 L63.5728,41.7132 L63.5728,62.8432 Z M19.8778,37.6152 L19.8778,66.9402 L45.2728,81.6022 L70.6688,66.9402 L70.6688,37.6152 L45.2728,22.9542 L19.8778,37.6152 Z" id="Fill-295"></path>
                <polygon id="Fill-297" points="38.4381 56.2245 45.2731 60.1705 52.1091 56.2245 52.1091 48.3315 45.2731 44.3855 38.4381 48.3315"></polygon>
                <polygon id="Fill-299" points="166.8775 70.6694 160.7325 64.5774 160.7325 33.7404 166.8775 33.7404"></polygon>
                <path d="M185.1031,52.3246 L209.7931,52.3246 L209.7931,58.5766 L191.2491,58.5766 L191.2491,70.9206 L185.1031,70.9206 L185.1031,52.3246 Z M209.7931,33.8336 L209.7931,40.0336 L191.2491,40.0336 L185.1031,33.8336 L209.7931,33.8336 Z" id="Fill-301"></path>
                <polygon id="Fill-303" points="225.3824 33.6352 225.4484 33.7022 225.3164 33.7022 225.3164 39.8412 231.5344 39.8412 231.5344 39.8412 250.0994 39.8412 250.0994 33.6352"></polygon>
                <polygon id="Fill-305" points="231.6685 46.1933 225.3155 46.1933 225.3155 70.7623 225.3825 70.7623 225.3825 70.7633 250.0995 70.7633 250.0995 64.5573 231.6685 64.5573 231.6685 55.3023 250.0995 55.3023 250.0995 49.1503 231.6685 49.1503"></polygon>
                <path d="M130.2368,70.8679 L142.5068,70.8679 L142.5068,64.6699 L130.2368,64.6699 L130.2368,70.8679 Z M125.8868,62.9059 C125.8908,62.9089 125.8958,62.9109 125.8988,62.9149 L123.1678,65.6129 L121.4718,67.2869 L121.4588,67.2929 C121.4578,67.2899 121.4558,67.2899 121.4528,67.2869 C119.0308,64.8289 117.8178,61.9089 117.8178,58.5239 L117.8178,33.7809 L124.0708,33.7809 L124.0708,58.5239 C124.0708,60.2339 124.6768,61.6949 125.8868,62.9059 L125.8868,62.9059 Z" id="Fill-307"></path>
            </g>
        </g>
    </g>
</svg>