<?xml version="1.0" encoding="UTF-8"?>
<svg width="496px" height="435px" viewBox="0 0 496 435" version="1.1" xmlns="http://www.w3.org/2000/svg" xmlns:xlink="http://www.w3.org/1999/xlink">
    <!-- Generator: Sketch 61 (89581) - https://sketch.com -->
    <title>Group</title>
    <desc>Created with Sketch.</desc>
    <g id="Page-1" stroke="none" stroke-width="1" fill="none" fill-rule="evenodd">
        <g id="Artboard-1" transform="translate(-743.000000, -330.000000)" fill="#FFFFFF">
            <g id="Group" transform="translate(743.000000, 329.984400)">
                <polygon id="Fill-2" points="247.8337 338.541 101.2417 253.906 101.2417 84.636 247.8337 -8.52651283e-14 394.4257 84.636 394.4257 180.257 247.7267 180.314 247.7177 158.228 372.3397 158.179 372.3397 97.387 247.8337 25.504 123.3277 97.387 123.3277 241.154 247.8337 313.038 372.3397 241.154 372.3397 202.458 394.4257 202.458 394.4257 253.906"></polygon>
                <g id="Group-19" transform="translate(0.000000, 382.015600)">
                    <path d="M85.2111,20.1074 C84.2871,22.2024 83.8271,24.4434 83.8271,26.8374 C83.8271,29.2304 84.2871,31.4744 85.2111,33.5684 C86.1331,35.6634 87.3791,37.4964 88.9511,39.0664 C90.5211,40.6384 92.3541,41.8704 94.4491,42.7674 C96.5431,43.6674 98.7861,44.1144 101.1791,44.1144 L111.2391,50.7694 C108.1211,52.1164 104.7701,52.7904 101.1791,52.7904 C97.5911,52.7904 94.2241,52.1034 91.0841,50.7324 C87.9411,49.3594 85.1871,47.4894 82.8171,45.1224 C80.4501,42.7534 78.5801,39.9874 77.2091,36.8204 C75.8361,33.6544 75.1511,30.3264 75.1511,26.8364 C75.1511,23.2474 75.8361,19.8794 77.2091,16.7394 C78.5801,13.5984 80.4501,10.8554 82.8171,8.5144 C85.1871,6.1694 87.9431,4.3134 91.0841,2.9434 C94.2241,1.5704 97.5891,0.8844 101.1791,0.8844 C104.7701,0.8844 108.1211,1.5574 111.2391,2.9064 C114.3551,4.2524 117.1101,6.1214 119.5031,8.5154 L113.3721,14.5734 C109.9311,11.2314 105.8671,9.5604 101.1811,9.5604 C98.7871,9.5604 96.5321,10.0094 94.4121,10.9074 C92.2911,11.8044 90.4601,13.0384 88.9141,14.6084 C87.3681,16.1804 86.1331,18.0124 85.2111,20.1074" id="Fill-3"></path>
                    <polygon id="Fill-5" points="185.8547 0.8848 185.8547 9.5628 168.5777 9.5628 168.5777 52.7898 159.9027 52.7898 159.9027 0.8848"></polygon>
                    <path d="M265.072,26.8379 C265.072,22.1039 263.377,18.0409 259.988,14.6499 C256.597,11.2569 252.533,9.5629 247.797,9.5629 C243.059,9.5629 238.971,11.2569 235.531,14.6499 C232.19,18.0389 230.519,22.1019 230.519,26.8379 C230.519,31.5749 232.19,35.6629 235.531,39.1039 C238.971,42.4449 243.058,44.1159 247.797,44.1159 C252.531,44.1159 256.595,42.4449 259.988,39.1039 C263.377,35.6629 265.072,31.5769 265.072,26.8379 M273.824,26.8379 C273.824,34.0689 271.256,40.1779 266.12,45.1619 C261.082,50.2489 254.977,52.7919 247.797,52.7919 C240.616,52.7919 234.507,50.2479 229.472,45.1619 C224.386,40.1259 221.843,34.0189 221.843,26.8379 C221.843,19.7079 224.386,13.6009 229.472,8.5149 C234.458,3.4269 240.566,0.8849 247.797,0.8849 C254.975,0.8849 261.082,3.4289 266.119,8.5149 C271.254,13.6009 273.822,19.7099 273.824,26.8379" id="Fill-7"></path>
                    <path d="M354.3947,18.2383 C354.3947,22.9743 352.6997,27.0633 349.3097,30.5043 C345.9197,33.8453 341.8557,35.5153 337.1187,35.5153 L319.7667,35.5153 L319.7667,52.7873 L311.1657,52.7873 L311.1657,26.8353 L337.1187,26.8353 C339.4617,26.8353 341.4807,25.9893 343.1757,24.2923 C344.8707,22.5993 345.7187,20.5803 345.7187,18.2353 C345.7187,15.8433 344.8707,13.7993 343.1757,12.1033 C341.4807,10.4083 339.4617,9.5603 337.1187,9.5603 L319.7667,9.5603 L311.1657,0.8843 L337.1187,0.8843 C341.8557,0.8843 345.9177,2.5823 349.3097,5.9713 C352.6997,9.3633 354.3947,13.4503 354.3947,18.2383" id="Fill-9"></path>
                    <polygon id="Fill-11" points="403.3297 52.4395 394.7297 43.9125 394.7297 0.7535 403.3297 0.7535"></polygon>
                    <path d="M495.5729,52.5869 L485.9249,52.5869 L481.5529,43.9879 L491.2739,43.9879 L495.5729,52.5869 Z M486.9339,35.3099 L477.2489,35.3099 L469.6209,20.0519 L461.9919,35.3099 L452.3049,35.3109 L469.6209,0.6809 L486.9339,35.3099 Z M447.9669,43.9879 L457.6149,43.9879 L453.3159,52.5869 L443.6679,52.5869 L447.9669,43.9879 Z" id="Fill-13"></path>
                    <polygon id="Fill-15" points="0.1872 0.8848 0.2802 0.9788 0.0942 0.9788 0.0942 9.5608 8.7892 9.5608 8.7892 9.5608 34.7422 9.5608 34.7422 0.8848"></polygon>
                    <polygon id="Fill-17" points="8.9753 18.4414 0.0943 18.4414 0.0943 52.7904 0.1873 52.7904 0.1873 52.7924 34.7423 52.7924 34.7423 44.1164 8.9753 44.1164 8.9753 31.1754 34.7423 31.1754 34.7423 22.5754 8.9753 22.5754"></polygon>
                </g>
            </g>
        </g>
    </g>
</svg>