<?xml version="1.0" encoding="UTF-8"?>
<svg width="568px" height="106px" viewBox="0 0 568 106" version="1.1" xmlns="http://www.w3.org/2000/svg" xmlns:xlink="http://www.w3.org/1999/xlink">
    <!-- Generator: Sketch 61 (89581) - https://sketch.com -->
    <title>Group 4</title>
    <desc>Created with Sketch.</desc>
    <g id="Page-1" stroke="none" stroke-width="1" fill="none" fill-rule="evenodd">
        <g id="Artboard-5" transform="translate(-1044.000000, -861.000000)" fill="#3289DE">
            <g id="Group-4" transform="translate(1044.970200, 861.543000)">
                <path d="M148.7066,60.0254 C148.7066,62.9834 147.6376,65.5304 145.5006,67.6684 C143.3956,69.7714 140.8506,70.8214 137.8566,70.8214 L137.8566,64.6224 C138.4976,64.6224 139.1036,64.5064 139.6746,64.2734 C140.2436,64.0434 140.7426,63.7224 141.1696,63.3124 C141.5986,62.9024 141.9256,62.4124 142.1586,61.8424 C142.3896,61.2724 142.5056,60.6674 142.5056,60.0254 C142.5056,58.7804 142.0426,57.6934 141.1166,56.7664 C140.2266,55.8394 139.1406,55.3774 137.8566,55.3774 L128.6136,55.3774 C125.6206,55.3774 123.0716,54.3254 120.9716,52.2234 C118.8676,50.1234 117.8176,47.5574 117.8176,44.5294 C117.8176,41.5724 118.8686,39.0444 120.9716,36.9414 C123.0386,34.8034 125.5856,33.7334 128.6136,33.7334 L128.6136,39.9334 C127.9736,39.9334 127.3666,40.0474 126.7966,40.2814 C126.2276,40.5134 125.7276,40.8424 125.3006,41.2694 C124.8736,41.6974 124.5436,42.1974 124.3116,42.7664 C124.0796,43.3374 123.9646,43.9244 123.9646,44.5294 C123.9646,45.8114 124.4086,46.9174 125.3006,47.8424 C126.1896,48.7694 127.2946,49.2304 128.6136,49.2304 L137.8566,49.2304 C140.8506,49.2304 143.3966,50.2834 145.5006,52.3854 C147.6366,54.4864 148.7046,57.0344 148.7066,60.0254" id="Fill-324"></path>
                <polygon id="Fill-325" points="173.1294 70.5693 166.9844 64.4763 166.9844 33.6393 173.1294 33.6393"></polygon>
                <path d="M222.2427,33.6806 L222.2427,52.2726 L216.0437,46.6916 L216.0437,33.6806 L222.2427,33.6806 Z M191.3547,33.6806 L222.2427,61.4926 L222.2427,70.8206 L197.5007,48.5896 L197.5007,70.7676 L191.3547,70.7676 L191.3547,33.6806 Z" id="Fill-326"></path>
                <path d="M265.9585,51.6455 L272.1595,51.6455 L272.1595,65.4805 C270.4495,67.1915 268.4805,68.5265 266.2545,69.4895 C264.0265,70.4515 261.6325,70.9315 259.0665,70.9315 C256.5035,70.9315 254.0975,70.4425 251.8535,69.4605 C249.6085,68.4835 247.6405,67.1565 245.9465,65.4805 C244.2555,63.8065 242.9195,61.8475 241.9395,59.6035 C240.9595,57.3595 240.4695,54.9555 240.4695,52.3895 C240.4695,49.8965 240.9595,47.5185 241.9395,45.2545 C242.9195,42.9935 244.2555,41.0165 245.9465,39.3235 C247.6405,37.6315 249.6085,36.2955 251.8535,35.3155 C254.0975,34.3355 256.5015,33.8445 259.0665,33.8445 L272.1595,33.8445 L265.9605,40.0435 L259.0665,40.0435 C257.3585,40.0435 255.7555,40.3645 254.2585,41.0065 C252.7625,41.6475 251.4525,42.5285 250.3305,43.6515 C249.2075,44.7725 248.3155,46.0825 247.6575,47.5795 C246.9985,49.0755 246.6695,50.6775 246.6695,52.3875 C246.6695,54.0975 246.9985,55.7005 247.6575,57.1975 C248.3155,58.6935 249.1975,60.0025 250.3025,61.1255 C251.4085,62.2485 252.7155,63.1285 254.2305,63.7705 C255.7455,64.4115 257.3565,64.7325 259.0665,64.7325 C261.6245,64.7325 263.9215,64.0315 265.9585,62.6375 L265.9585,51.6455 Z" id="Fill-327"></path>
                <path d="M351.9618,70.93 L364.2318,70.93 L364.2318,64.732 L351.9618,64.732 L351.9618,70.93 Z M347.6118,62.968 C347.6158,62.971 347.6208,62.974 347.6238,62.978 L344.8918,65.675 L343.1968,67.35 L343.1828,67.354 C343.1818,67.353 343.1798,67.352 343.1768,67.35 C340.7558,64.892 339.5428,61.972 339.5428,58.587 L339.5428,33.844 L345.7958,33.844 L345.7958,58.587 C345.7958,60.297 346.4008,61.757 347.6118,62.968 L347.6118,62.968 Z" id="Fill-328"></path>
                <path d="M419.5435,70.8213 L412.6495,70.8213 L409.5785,64.6763 L416.4715,64.6763 L419.5435,70.8213 Z M413.3725,58.4773 L406.4505,58.4763 L401.0005,47.5743 L395.5675,58.4763 L389.3505,70.8213 L382.4565,70.8213 L401.0005,33.7333 L413.3725,58.4773 Z" id="Fill-329"></path>
                <path d="M442.8569,57.5146 L450.4989,70.8206 L443.3909,70.8206 L432.6209,52.2526 L438.1539,52.2776 C439.8279,52.2776 441.2699,51.6716 442.4829,50.4606 C443.6929,49.2486 444.2989,47.7886 444.2989,46.0776 C444.2989,44.4046 443.6939,42.9596 442.4829,41.7486 C441.2699,40.5376 439.8279,39.9326 438.1539,39.9326 L425.4729,39.9326 L421.8769,33.7336 L438.1529,33.7336 C441.5369,33.7336 444.4399,34.9456 446.8619,37.3676 C449.2849,39.7906 450.4959,42.6946 450.4959,46.0776 C450.4959,48.6426 449.7649,50.9766 448.3049,53.0776 C446.8799,55.1456 445.0639,56.6236 442.8569,57.5146" id="Fill-330"></path>
                <polygon id="Fill-331" points="474.9087 70.5693 468.7627 64.4763 468.7627 33.6393 474.9087 33.6393"></polygon>
                <polygon id="Fill-332" points="511.6782 33.7334 511.6782 39.9334 499.3332 39.9334 499.3332 70.8204 493.1352 70.8204 493.1352 33.7334"></polygon>
                <path d="M545.2558,70.97 L551.4548,70.97 L551.4548,64.77 L545.2558,64.77 L545.2558,70.97 Z M548.3728,57.447 L529.9028,33.883 L537.8118,33.883 L548.3398,47.403 L558.9198,33.883 L566.7768,33.883 L548.3728,57.447 Z" id="Fill-333"></path>
                <path d="M296.6304,33.8447 L296.6304,55.4867 L296.6274,55.4867 C296.6274,58.0187 297.5554,60.1907 299.4064,62.0067 C301.1874,63.8237 303.3604,64.7327 305.9264,64.7327 C308.4904,64.7327 310.6814,63.8237 312.4994,62.0067 C314.2814,60.2257 315.1724,58.0537 315.1724,55.4867 L315.1724,40.0297 L321.3174,40.0297 L321.3174,55.4867 C321.3174,59.7267 319.8214,63.3787 316.8284,66.4427 C313.7654,69.4357 310.1314,70.9317 305.9274,70.9317 C301.6874,70.9317 298.0364,69.4357 294.9724,66.4427 C291.9444,63.4147 290.4304,59.7617 290.4304,55.4867 L290.4304,33.8447 L296.6304,33.8447 Z" id="Fill-334"></path>
                <g id="Group-2">
                    <path d="M45.273,2.84217094e-14 L0,26.139 L0,78.416 L45.273,104.555 L90.546,78.416 L90.546,26.139 L45.273,2.84217094e-14 Z M45.273,4.259 L86.858,28.269 L86.858,76.286 L45.273,100.296 L3.688,76.286 L3.688,28.269 L45.273,4.259 Z" id="Fill-335"></path>
                    <polygon id="Fill-336" points="45.273 80.5254 49.034 76.7654 58.771 67.0284 55.363 63.6204 55.363 63.6214 49.033 57.2914 49.034 57.2914 45.273 53.5314 44.019 52.2774 40.259 48.5174 36.025 44.2834 29.268 37.5264 40.259 26.5354 41.513 27.7894 45.273 31.5484 51.251 37.5264 46.527 42.2504 50.287 46.0094 58.771 37.5264 49.034 27.7894 45.273 24.0294 40.259 19.0154 21.749 37.5264 36.5 52.2774 40.259 56.0374 41.513 57.2914 45.273 61.0504 51.251 67.0284 47.999 70.2804 45.273 73.0054 41.513 76.7654 40.585 77.6944 40.259 78.0194 29.268 67.0284 39.006 57.2914 35.246 53.5304 21.749 67.0284 40.259 85.5394"></polygon>
                    <polygon id="Fill-337" points="50.2866 26.5351 50.2866 26.5351 61.2776 37.5261 51.5406 47.2641 55.3006 51.0231 68.7986 37.5261 50.2866 19.0151 46.5266 22.7751"></polygon>
                    <polygon id="Fill-338" points="54.0474 52.2773 50.2864 48.5173 49.0334 47.2633 45.2734 43.5033 39.2964 37.5263 44.0204 32.8023 40.2594 29.0423 31.7764 37.5263 41.5134 47.2633 41.5124 47.2643 45.2724 51.0243 45.2734 51.0233 46.5264 52.2773 46.5264 52.2783 50.2864 56.0383 50.2864 56.0373 61.2774 67.0283 50.2864 78.0193 50.2864 78.0183 46.5264 81.7793 50.2864 85.5393 68.7984 67.0283"></polygon>
                    <polygon id="Fill-339" points="40.2593 58.5449 31.7763 67.0279 40.2593 75.5129 44.0203 71.7519 39.2963 67.0279 44.0203 62.3049"></polygon>
                    <polygon id="Fill-340" points="41.5132 86.7929 45.2732 90.5529 49.0342 86.7929 45.2732 83.0319"></polygon>
                    <polygon id="Fill-341" points="49.0337 17.7617 45.2727 14.0017 41.5127 17.7617 45.2727 21.5227"></polygon>
                </g>
            </g>
        </g>
    </g>
</svg>