<?xml version="1.0" encoding="UTF-8"?>
<svg width="343px" height="105px" viewBox="0 0 343 105" version="1.1" xmlns="http://www.w3.org/2000/svg" xmlns:xlink="http://www.w3.org/1999/xlink">
    <!-- Generator: Sketch 61 (89581) - https://sketch.com -->
    <title>Group 3</title>
    <desc>Created with Sketch.</desc>
    <g id="Page-1" stroke="none" stroke-width="1" fill="none" fill-rule="evenodd">
        <g id="Artboard-5" transform="translate(-1044.000000, -679.000000)" fill="#88848F">
            <g id="Group-3" transform="translate(1044.970200, 679.004900)">
                <g id="Group">
                    <polygon id="Fill-342" points="52.9009 89.8271 45.2889 94.2221 18.6719 78.8541 18.6719 48.1201 26.2839 43.7251 26.2839 74.4601"></polygon>
                    <polygon id="Fill-343" points="81.5972 64.4336 81.5972 73.2226 54.9812 88.5896 28.3642 73.2226 28.3642 64.4336 54.9812 79.8006"></polygon>
                    <polygon id="Fill-344" points="16.5601 77.6582 8.9491 73.2632 8.9491 42.5292 35.5651 27.1622 43.1771 31.5562 16.5601 46.9242"></polygon>
                    <path d="M45.273,2.13162821e-14 L0,26.139 L0,78.416 L45.273,104.556 L90.546,78.416 L90.546,26.139 L45.273,2.13162821e-14 Z M45.273,4.26 L86.858,28.269 L86.858,76.287 L45.273,100.296 L3.688,76.287 L3.688,28.269 L45.273,4.26 Z" id="Fill-345"></path>
                    <polygon id="Fill-346" points="37.646 14.7285 45.257 10.3335 71.875 25.7015 71.875 56.4355 64.262 60.8305 64.262 30.0955"></polygon>
                    <polygon id="Fill-347" points="8.9487 40.1221 8.9487 31.3331 35.5647 15.9661 62.1817 31.3331 62.1817 40.1221 35.5647 24.7561"></polygon>
                    <polygon id="Fill-348" points="73.9859 26.8974 81.5969 31.2924 81.5969 62.0264 54.9809 77.3934 47.3699 72.9994 73.9859 57.6314"></polygon>
                    <polygon id="Fill-349" points="54.4605 42.9111 54.4605 46.5091 47.2965 46.5091 47.2965 64.4321 43.6995 64.4321 43.6995 42.9111"></polygon>
                    <polygon id="Fill-350" points="36.5468 46.5091 40.1448 46.5091 40.1448 42.9111 36.5468 42.9111"></polygon>
                </g>
                <polygon id="Fill-351" points="148.8267 33.6611 148.8267 39.8861 136.4327 39.8861 136.4327 70.8921 130.2117 70.8921 130.2117 33.6611"></polygon>
                <path d="M192.8111,52.2773 C192.8111,48.8813 191.5951,45.9663 189.1641,43.5343 C186.7321,41.1013 183.8171,39.8853 180.4191,39.8853 C177.0221,39.8853 174.0891,41.1013 171.6221,43.5343 C169.2241,45.9653 168.0271,48.8803 168.0271,52.2773 C168.0271,55.6743 169.2241,58.6073 171.6221,61.0763 C174.0891,63.4723 177.0211,64.6713 180.4191,64.6713 C183.8161,64.6713 186.7321,63.4723 189.1641,61.0763 C191.5951,58.6073 192.8111,55.6753 192.8111,52.2773 M199.0891,52.2773 C199.0891,57.4643 197.2481,61.8463 193.5641,65.4213 C189.9501,69.0703 185.5701,70.8943 180.4191,70.8943 C175.2691,70.8943 170.8871,69.0693 167.2761,65.4213 C163.6261,61.8083 161.8031,57.4273 161.8031,52.2773 C161.8031,47.1633 163.6261,42.7823 167.2761,39.1333 C170.8521,35.4843 175.2331,33.6613 180.4191,33.6613 C185.5691,33.6613 189.9501,35.4863 193.5621,39.1333 C197.2461,42.7823 199.0881,47.1643 199.0891,52.2773" id="Fill-352"></path>
                <path d="M224.6509,47.4492 C223.9879,48.9522 223.6579,50.5592 223.6579,52.2772 C223.6579,53.9932 223.9879,55.6022 224.6509,57.1042 C225.3119,58.6072 226.2059,59.9222 227.3339,61.0492 C228.4599,62.1762 229.7739,63.0592 231.2769,63.7042 C232.7779,64.3482 234.3869,64.6692 236.1039,64.6692 L243.3209,69.4432 C241.0839,70.4092 238.6799,70.8922 236.1039,70.8922 C233.5309,70.8922 231.1159,70.3992 228.8629,69.4162 C226.6089,68.4322 224.6319,67.0912 222.9329,65.3922 C221.2359,63.6932 219.8929,61.7092 218.9109,59.4372 C217.9259,57.1662 217.4349,54.7792 217.4349,52.2762 C217.4349,49.7012 217.9259,47.2862 218.9109,45.0332 C219.8929,42.7812 221.2359,40.8132 222.9329,39.1342 C224.6319,37.4512 226.6099,36.1202 228.8629,35.1362 C231.1159,34.1522 233.5289,33.6612 236.1039,33.6612 C238.6799,33.6612 241.0839,34.1432 243.3209,35.1102 C245.5549,36.0762 247.5319,37.4162 249.2489,39.1352 L244.8499,43.4792 C242.3819,41.0822 239.4669,39.8852 236.1049,39.8852 C234.3889,39.8852 232.7699,40.2062 231.2499,40.8502 C229.7279,41.4942 228.4149,42.3792 227.3059,43.5052 C226.1969,44.6332 225.3119,45.9472 224.6509,47.4492" id="Fill-353"></path>
                <polygon id="Fill-354" points="341.6851 33.6611 341.6851 70.8941 310.7201 43.0721 310.7201 33.6611 335.4701 55.9471 335.4701 33.6611"></polygon>
                <polygon id="Fill-355" points="267.6558 33.7129 267.7218 33.7789 267.5898 33.7789 267.5898 39.9189 273.8088 39.9189 292.3728 39.9189 292.3728 33.7129"></polygon>
                <polygon id="Fill-356" points="273.9419 46.2715 267.5889 46.2715 267.5889 70.8395 267.6559 70.8395 267.6559 70.8405 292.3729 70.8405 292.3729 64.6355 273.9419 64.6355 273.9419 55.3795 292.3729 55.3795 292.3729 49.2275 273.9419 49.2275"></polygon>
                <polygon id="Fill-357" points="117.8178 39.8861 124.0418 39.8861 124.0418 33.6611 117.8178 33.6611"></polygon>
            </g>
        </g>
    </g>
</svg>